<?xml version="1.0" encoding="utf-8"?>
<!-- Generator: Adobe Illustrator 24.3.0, SVG Export Plug-In . SVG Version: 6.00 Build 0)  -->
<svg version="1.1" id="Calque_1" xmlns="http://www.w3.org/2000/svg" xmlns:xlink="http://www.w3.org/1999/xlink" x="0px" y="0px"
	 viewBox="0 0 252 144" style="enable-background:new 0 0 252 144;" xml:space="preserve">
<style type="text/css">
	.st0{fill:none;stroke:#3D3D3D;}
	.st1{fill:#3D3D3D;}
	.st2{fill:none;stroke:#3D3D3D;stroke-width:0.5;}
	.st3{fill:#4F72AA;}
	.st4{fill:#F84545;}
	.st5{fill:#F84545;stroke:#3D3D3D;stroke-width:0.5;}
	.st6{fill:none;}
	.st7{fill:#4F72AA;stroke:#3D3D3D;stroke-width:0.5;}
</style>
<g id="Repères">
</g>
<g id="Traits_de_coupe">
	<rect x="23.8" y="39.8" class="st0" width="176.5" height="20.8"/>
	<path class="st1" d="M193.4,45.1c0.1,0,0.2,0.1,0.3,0.2c0.1,0.1,0.1,0.2,0.1,0.3c0,0.2-0.1,0.3-0.2,0.4c-0.1,0.1-0.3,0.2-0.5,0.2
		c-0.1,0-0.3,0-0.4-0.1s-0.2-0.1-0.2-0.2c0,0,0,0,0-0.1s0.1,0,0.1,0c0,0,0.1,0,0.2,0.1c0.1,0,0.2,0.1,0.3,0.1c0.1,0,0.2,0,0.3-0.1
		c0.1-0.1,0.1-0.2,0.1-0.3c0-0.1,0-0.2-0.1-0.2s-0.1-0.1-0.2-0.1c0,0-0.1,0-0.1,0c-0.1,0-0.1,0-0.1-0.1c0-0.1,0-0.1,0.1-0.1
		c0,0,0.1,0,0.1,0c0.1,0,0.1,0,0.2-0.1s0.1-0.1,0.1-0.2c0-0.1,0-0.2-0.1-0.2s-0.1-0.1-0.2-0.1c-0.1,0-0.2,0-0.2,0.1
		c-0.1,0-0.1,0.1-0.2,0.1c0,0-0.1,0-0.1,0s0,0,0-0.1c0-0.1,0.1-0.1,0.2-0.2s0.2-0.1,0.4-0.1c0.1,0,0.3,0,0.4,0.1s0.1,0.2,0.1,0.3
		c0,0.1,0,0.2-0.1,0.2C193.6,45,193.5,45.1,193.4,45.1z"/>
	<path class="st1" d="M192.8,50.2c0.1-0.1,0.1-0.1,0.2-0.2s0.1,0,0.2,0c0.1,0,0.3,0.1,0.4,0.2c0.1,0.1,0.2,0.3,0.2,0.4
		c0,0.2-0.1,0.3-0.2,0.4s-0.2,0.2-0.4,0.2c-0.2,0-0.4-0.1-0.5-0.2c-0.1-0.2-0.2-0.4-0.2-0.6c0-0.3,0.1-0.6,0.3-0.8s0.4-0.3,0.7-0.3
		c0.1,0,0.2,0,0.2,0s0.1,0,0.1,0.1c0,0.1-0.1,0.1-0.2,0.1c-0.1,0-0.1,0-0.2,0c-0.1,0-0.3,0.1-0.4,0.2
		C192.9,49.8,192.9,50,192.8,50.2z M192.9,50.6c0,0.1,0,0.2,0.1,0.3c0.1,0.1,0.1,0.1,0.2,0.1c0.1,0,0.2,0,0.2-0.1s0.1-0.2,0.1-0.3
		s0-0.2-0.1-0.3s-0.1-0.1-0.2-0.1c-0.1,0-0.2,0-0.2,0.1C192.9,50.4,192.9,50.5,192.9,50.6z"/>
	<g>
		<g>
			<circle class="st2" cx="25.4" cy="65" r="1.6"/>
		</g>
		<g>
			<path class="st1" d="M29.5,65.9C29.5,65.9,29.4,66,29.5,65.9c0,0.1-0.1,0.1-0.1,0.1c0,0-0.1,0-0.1,0c0,0,0-0.1,0-0.1l0-0.3v0
				c0-0.1,0-0.1,0-0.1s0,0,0.1,0c0.1,0,0.1,0,0.1,0.1c0,0,0,0.1,0,0.1c0,0.1,0.1,0.1,0.2,0.2s0.2,0.1,0.3,0.1c0.1,0,0.2,0,0.3-0.1
				s0.1-0.1,0.1-0.2c0-0.1,0-0.1-0.1-0.2s-0.1-0.1-0.2-0.1l-0.2,0c-0.2,0-0.4-0.1-0.4-0.2s-0.1-0.2-0.1-0.3c0-0.2,0.1-0.3,0.2-0.4
				c0.1-0.1,0.3-0.2,0.5-0.2c0,0,0.1,0,0.2,0c0.1,0,0.1,0,0.2,0.1c0,0,0-0.1,0-0.1s0,0,0.1,0c0,0,0.1,0,0.1,0s0,0,0,0.1l0,0.3v0
				c0,0,0,0.1,0,0.1c0,0,0,0-0.1,0c0,0-0.1,0-0.1-0.1c0,0,0-0.1,0-0.1c0-0.1-0.1-0.1-0.1-0.1s-0.1,0-0.2,0c-0.1,0-0.2,0-0.3,0.1
				s-0.1,0.1-0.1,0.2c0,0.1,0,0.1,0.1,0.2c0,0,0.1,0.1,0.2,0.1l0.2,0c0.2,0,0.3,0.1,0.4,0.2s0.1,0.2,0.1,0.3c0,0.2-0.1,0.3-0.2,0.4
				c-0.1,0.1-0.3,0.2-0.5,0.2c-0.1,0-0.1,0-0.2,0S29.5,65.9,29.5,65.9z"/>
			<path class="st1" d="M31.8,65.7h0.5c0,0,0.1,0,0.1,0c0,0,0,0,0,0.1s0,0.1,0,0.1c0,0,0,0-0.1,0h-1.1c0,0-0.1,0-0.1,0s0,0,0-0.1
				c0,0,0-0.1,0-0.1s0,0,0.1,0h0.5v-0.9h-0.3c0,0-0.1,0-0.1,0s0,0,0-0.1c0,0,0-0.1,0-0.1s0,0,0.1,0h0.4c0,0,0,0,0.1,0s0,0,0,0
				L31.8,65.7L31.8,65.7z M31.5,64.2c0-0.1,0-0.2,0-0.2c0,0,0.1,0,0.1,0c0.1,0,0.1,0,0.1,0s0,0.1,0,0.2s0,0.1,0,0.2c0,0-0.1,0-0.1,0
				c-0.1,0-0.1,0-0.1,0C31.5,64.3,31.5,64.2,31.5,64.2z"/>
			<path class="st1" d="M34.1,65.9c0,0.1,0,0.2,0,0.3c0,0.1,0,0.1-0.1,0.2c-0.1,0.1-0.1,0.1-0.2,0.2s-0.2,0.1-0.3,0.1
				c-0.1,0-0.2,0-0.2,0c0,0-0.1-0.1-0.1-0.1c0,0,0-0.1,0-0.1c0,0,0,0,0.1,0c0,0,0.1,0,0.1,0s0.1,0,0.1,0c0.1,0,0.2,0,0.3-0.1
				s0.1-0.2,0.1-0.3v-0.2c-0.1,0.1-0.1,0.1-0.2,0.2s-0.2,0.1-0.2,0.1c-0.2,0-0.3-0.1-0.5-0.2s-0.2-0.3-0.2-0.5
				c0-0.2,0.1-0.3,0.2-0.5s0.3-0.2,0.5-0.2c0.1,0,0.2,0,0.2,0s0.1,0.1,0.2,0.1v-0.1c0,0,0,0,0-0.1c0,0,0,0,0.1,0h0.2
				c0,0,0.1,0,0.1,0s0,0,0,0.1s0,0.1,0,0.1c0,0-0.1,0-0.1,0h0L34.1,65.9L34.1,65.9z M33.4,64.8c-0.1,0-0.2,0-0.3,0.1
				S33,65.1,33,65.2c0,0.1,0,0.2,0.1,0.3c0.1,0.1,0.2,0.1,0.3,0.1c0.1,0,0.2,0,0.3-0.1s0.1-0.2,0.1-0.3s0-0.2-0.1-0.3
				S33.6,64.8,33.4,64.8z"/>
			<path class="st1" d="M34.7,65.7v-0.9h0c-0.1,0-0.1,0-0.1,0c0,0,0,0,0-0.1s0-0.1,0-0.1c0,0,0,0,0.1,0h0.1h0.1c0,0,0,0,0.1,0
				s0,0,0,0v0.1c0.1-0.1,0.1-0.1,0.2-0.2s0.1-0.1,0.2-0.1c0.2,0,0.3,0.1,0.3,0.1s0.1,0.2,0.1,0.4v0.7h0.1c0,0,0.1,0,0.1,0
				c0,0,0,0,0,0.1s0,0.1,0,0.1c0,0-0.1,0-0.1,0h-0.3c-0.1,0-0.1,0-0.1,0s0,0,0-0.1s0-0.1,0-0.1c0,0,0.1,0,0.1,0h0v-0.6
				c0-0.1,0-0.2-0.1-0.3c0-0.1-0.1-0.1-0.2-0.1s-0.2,0-0.3,0.1C35,64.9,35,65,35,65.1v0.6h0c0.1,0,0.1,0,0.1,0s0,0,0,0.1
				s0,0.1,0,0.1s-0.1,0-0.1,0h-0.3h-0.1c0,0-0.1,0-0.1,0s0,0,0-0.1s0-0.1,0-0.1S34.6,65.7,34.7,65.7L34.7,65.7L34.7,65.7z"/>
			<path class="st1" d="M37.4,65.8c-0.1,0.1-0.2,0.1-0.3,0.2S37,66,36.9,66c-0.2,0-0.3,0-0.3-0.1s-0.1-0.2-0.1-0.3
				c0-0.2,0.1-0.3,0.2-0.4c0.1-0.1,0.3-0.1,0.5-0.1c0.1,0,0.1,0,0.2,0c0.1,0,0.1,0,0.2,0v0c0-0.1,0-0.2-0.1-0.2s-0.1-0.1-0.2-0.1
				c-0.1,0-0.2,0-0.2,0.1s-0.2,0.1-0.2,0.1s0,0-0.1,0s0-0.1,0-0.1c0-0.1,0-0.1,0.2-0.2s0.2-0.1,0.4-0.1c0.2,0,0.3,0,0.4,0.1
				s0.1,0.2,0.1,0.4v0.7h0.1c0.1,0,0.1,0,0.1,0s0,0,0,0.1s0,0.1,0,0.1s0,0-0.1,0h-0.2c0,0,0,0-0.1,0S37.4,65.9,37.4,65.8L37.4,65.8z
				 M37.4,65.3c0,0-0.1,0-0.2,0s-0.1,0-0.2,0c-0.2,0-0.3,0-0.4,0.1s-0.1,0.1-0.1,0.2c0,0.1,0,0.1,0.1,0.2c0,0,0.1,0.1,0.2,0.1
				c0.1,0,0.2,0,0.3-0.1s0.2-0.1,0.2-0.2L37.4,65.3L37.4,65.3z"/>
			<path class="st1" d="M38.8,64.2h-0.2c-0.1,0-0.2,0-0.2,0c0,0,0,0,0-0.1s0-0.1,0-0.1s0,0,0.1,0h0.5c0,0,0,0,0.1,0s0,0,0,0v1.7h0.5
				c0,0,0.1,0,0.1,0c0,0,0,0,0,0.1s0,0.1,0,0.1s0,0-0.1,0h-1.1c0,0-0.1,0-0.1,0s0,0,0-0.1c0,0,0-0.1,0-0.1s0,0,0.1,0h0.4L38.8,64.2
				L38.8,64.2z"/>
		</g>
	</g>
	<g>
		<g>
			<circle class="st3" cx="46.8" cy="65" r="1.6"/>
			<circle class="st2" cx="46.8" cy="65" r="1.6"/>
		</g>
		<g>
			<path class="st1" d="M51.9,65.6v-0.3h-0.4c0,0,0,0-0.1,0s0,0,0-0.1c0,0,0-0.1,0-0.1s0,0,0.1,0h0.6c0,0,0,0,0.1,0c0,0,0,0,0,0.1
				c0,0,0,0.1,0,0.1c0,0,0,0-0.1,0h0v0.4v0c0,0,0,0,0,0.1c0,0,0,0,0,0c-0.1,0-0.1,0.1-0.2,0.1s-0.2,0-0.3,0c-0.3,0-0.5-0.1-0.6-0.2
				s-0.2-0.4-0.2-0.7s0.1-0.5,0.2-0.7s0.4-0.3,0.6-0.3c0.1,0,0.1,0,0.2,0s0.1,0,0.2,0.1c0,0,0,0,0-0.1c0,0,0,0,0.1,0
				c0,0,0.1,0,0.1,0s0,0.1,0,0.2v0.2c0,0.1,0,0.1,0,0.1c0,0,0,0-0.1,0c0,0-0.1,0-0.1-0.1c0,0,0,0,0,0c0-0.1-0.1-0.1-0.2-0.2
				s-0.1-0.1-0.2-0.1c-0.2,0-0.3,0.1-0.4,0.2s-0.2,0.3-0.2,0.5c0,0.2,0.1,0.4,0.2,0.5c0.1,0.1,0.3,0.2,0.5,0.2c0.1,0,0.1,0,0.2,0
				S51.8,65.6,51.9,65.6z"/>
			<path class="st1" d="M52.8,65.6L52.8,65.6H53c0,0,0.1,0,0.1,0s0,0,0,0.1s0,0.1,0,0.1s-0.1,0-0.1,0h-0.4h-0.1c0,0-0.1,0-0.1,0
				s0,0,0-0.1s0-0.1,0-0.1s0.1,0,0.1,0h0v-1.3h0c-0.1,0-0.1,0-0.2,0c0,0,0,0,0-0.1s0-0.1,0-0.1c0,0,0.1,0,0.1,0c0,0,0.1,0,0.1,0h0.1
				c0,0,0.1,0,0.1,0c0,0,0,0,0.1,0.1l0.7,1.3v-1.2h-0.1h-0.1c0,0-0.1,0-0.1,0s0,0,0-0.1s0-0.1,0-0.1s0.1,0,0.1,0h0.3h0.1
				c0,0,0.1,0,0.1,0s0,0,0,0.1s0,0.1,0,0.1s-0.1,0-0.1,0h0v1.5c0,0,0,0.1,0,0.1c0,0,0,0-0.1,0s-0.1,0-0.1,0s0,0-0.1-0.1l-0.8-1.3
				V65.6z"/>
			<path class="st1" d="M54.7,65.8h-0.2h-0.1c0,0-0.1,0-0.1,0s0,0,0-0.1s0-0.1,0-0.1s0.1,0,0.1,0h0v-1.3h0c-0.1,0-0.1,0-0.1,0
				c0,0,0,0,0-0.1s0-0.1,0-0.1c0,0,0,0,0.1,0h0.1h0.2H55c0.2,0,0.4,0.1,0.6,0.2c0.1,0.2,0.2,0.4,0.2,0.6c0,0.1,0,0.2-0.1,0.4
				s-0.1,0.2-0.2,0.3c-0.1,0.1-0.2,0.1-0.3,0.2c-0.1,0-0.2,0.1-0.4,0.1c0,0,0,0-0.1,0C54.7,65.8,54.7,65.8,54.7,65.8z M54.7,65.6
				C54.7,65.6,54.7,65.6,54.7,65.6c0.1,0,0.2,0,0.2,0c0.2,0,0.4-0.1,0.5-0.2s0.2-0.3,0.2-0.5s-0.1-0.4-0.2-0.5
				c-0.1-0.1-0.3-0.2-0.5-0.2c0,0-0.1,0-0.1,0c0,0,0,0-0.1,0V65.6z"/>
		</g>
	</g>
	<g>
		<g>
			<circle class="st4" cx="63.3" cy="65" r="1.6"/>
			<circle class="st2" cx="63.3" cy="65" r="1.6"/>
		</g>
		<g>
			<path class="st1" d="M68.7,64.3L68.7,64.3c-0.1,0-0.1,0-0.1,0c0,0,0,0,0-0.1c0,0,0-0.1,0-0.1c0,0,0,0,0.1,0h0.4
				c0.1,0,0.1,0,0.1,0c0,0,0,0,0,0.1s0,0.1,0,0.1c0,0-0.1,0-0.1,0H69l0.5,1.3l0.5-1.3h-0.2c-0.1,0-0.1,0-0.1,0s0,0,0-0.1
				s0-0.1,0-0.1s0.1,0,0.1,0h0.5c0,0,0.1,0,0.1,0c0,0,0,0,0,0.1s0,0.1,0,0.1c0,0-0.1,0-0.1,0h-0.1l-0.5,1.4c0,0.1-0.1,0.1-0.1,0.1
				s0,0-0.1,0h-0.1c-0.1,0-0.1-0.1-0.2-0.2v0L68.7,64.3z"/>
			<path class="st1" d="M67.2,64.7c0.1,0,0.1,0,0.2,0c0.1,0,0.1,0,0.2,0c0.2,0,0.3,0.1,0.4,0.2c0.1,0.1,0.2,0.3,0.2,0.4
				c0,0.2-0.1,0.3-0.2,0.5c-0.1,0.1-0.3,0.2-0.5,0.2c-0.2,0-0.3,0-0.4-0.1c-0.1,0-0.2-0.1-0.2-0.2c0,0,0-0.1,0-0.1c0,0,0,0,0.1,0
				c0,0,0.1,0,0.2,0.1s0.2,0.1,0.3,0.1c0.1,0,0.2,0,0.3-0.1c0.1-0.1,0.1-0.2,0.1-0.3c0-0.1,0-0.2-0.1-0.3s-0.2-0.1-0.3-0.1
				c-0.1,0-0.2,0-0.3,0.1C67.1,65,67.1,65,67.1,65c0,0,0,0-0.1,0c0,0,0-0.1,0-0.1v-0.7c0,0,0-0.1,0-0.1c0,0,0,0,0.1,0h0.7
				c0.1,0,0.1,0,0.1,0c0,0,0,0.1,0,0.1c0,0,0,0.1,0,0.1c0,0-0.1,0-0.1,0h-0.7L67.2,64.7L67.2,64.7z"/>
		</g>
	</g>
	<g>
		<g>
			<g>
				<g>
					<circle class="st2" cx="34.2" cy="45.2" r="1.5"/>
				</g>
				<g>
					<circle class="st2" cx="39.2" cy="45.2" r="1.5"/>
				</g>
				<g>
					<circle class="st5" cx="44.2" cy="45.2" r="1.5"/>
				</g>
				<g>
					<circle class="st2" cx="49.2" cy="45.2" r="1.5"/>
				</g>
				<g>
					<circle class="st2" cx="54.2" cy="45.2" r="1.5"/>
				</g>
				<g>
					<circle class="st6" cx="59.2" cy="45.2" r="1.5"/>
					<circle class="st2" cx="59.2" cy="45.2" r="1.5"/>
				</g>
				<g>
					<circle class="st7" cx="64.2" cy="45.2" r="1.6"/>
				</g>
				<g>
					<circle class="st2" cx="69.2" cy="45.2" r="1.6"/>
				</g>
				<g>
					<circle class="st2" cx="74.2" cy="45.2" r="1.6"/>
				</g>
				<g>
					<circle class="st2" cx="79.2" cy="45.2" r="1.6"/>
				</g>
				<g>
					<circle class="st5" cx="84.2" cy="45.2" r="1.6"/>
				</g>
				<g>
					<circle class="st2" cx="89.2" cy="45.2" r="1.6"/>
				</g>
				<g>
					<circle class="st2" cx="94.2" cy="45.2" r="1.6"/>
				</g>
				<g>
					<circle class="st2" cx="99.2" cy="45.2" r="1.6"/>
				</g>
				<g>
					<circle class="st7" cx="104.2" cy="45.2" r="1.6"/>
				</g>
				<g>
					<circle class="st2" cx="109.2" cy="45.2" r="1.6"/>
				</g>
				<g>
					<circle class="st2" cx="114.2" cy="45.2" r="1.6"/>
				</g>
				<g>
					<circle class="st2" cx="119.2" cy="45.2" r="1.6"/>
				</g>
				<g>
					<circle class="st5" cx="124.2" cy="45.2" r="1.6"/>
					<circle class="st5" cx="124.2" cy="45.2" r="1.6"/>
				</g>
				<g>
					<circle class="st2" cx="129.2" cy="45.2" r="1.6"/>
				</g>
				<g>
					<circle class="st2" cx="134.2" cy="45.2" r="1.6"/>
				</g>
				<g>
					<circle class="st2" cx="139.2" cy="45.2" r="1.6"/>
				</g>
				<g>
					<circle class="st7" cx="144.2" cy="45.2" r="1.6"/>
				</g>
				<g>
					<circle class="st2" cx="149.2" cy="45.2" r="1.6"/>
				</g>
				<g>
					<circle class="st2" cx="154.2" cy="45.2" r="1.6"/>
				</g>
				<g>
					<circle class="st2" cx="159.2" cy="45.2" r="1.6"/>
				</g>
				<g>
					<circle class="st5" cx="164.2" cy="45.2" r="1.6"/>
				</g>
				<g>
					<circle class="st2" cx="169.2" cy="45.2" r="1.6"/>
				</g>
				<g>
					<circle class="st2" cx="174.2" cy="45.2" r="1.6"/>
				</g>
				<g>
					<circle class="st2" cx="179.2" cy="45.2" r="1.6"/>
				</g>
				<g>
					<circle class="st7" cx="184.2" cy="45.2" r="1.6"/>
				</g>
				<g>
					<circle class="st2" cx="189.2" cy="45.2" r="1.6"/>
				</g>
				<g>
					<circle class="st7" cx="34.2" cy="50.2" r="1.5"/>
					<circle class="st7" cx="34.2" cy="50.2" r="1.5"/>
				</g>
				<g>
					<circle class="st2" cx="39.2" cy="50.2" r="1.5"/>
				</g>
				<g>
					<circle class="st2" cx="44.2" cy="50.2" r="1.5"/>
				</g>
				<g>
					<circle class="st6" cx="49.2" cy="50.2" r="1.5"/>
					<circle class="st2" cx="49.2" cy="50.2" r="1.5"/>
				</g>
				<g>
					<circle class="st7" cx="54.2" cy="50.2" r="1.5"/>
				</g>
				<g>
					<circle class="st2" cx="59.2" cy="50.2" r="1.5"/>
				</g>
				<g>
					<circle class="st6" cx="64.2" cy="50.2" r="1.6"/>
					<circle class="st2" cx="64.2" cy="50.2" r="1.6"/>
				</g>
				<g>
					<circle class="st2" cx="69.2" cy="50.2" r="1.6"/>
				</g>
				<g>
					<circle class="st7" cx="74.2" cy="50.2" r="1.6"/>
				</g>
				<g>
					<circle class="st6" cx="79.2" cy="50.2" r="1.6"/>
					<circle class="st2" cx="79.2" cy="50.2" r="1.6"/>
				</g>
				<g>
					<circle class="st2" cx="84.2" cy="50.2" r="1.6"/>
				</g>
				<g>
					<circle class="st2" cx="89.2" cy="50.2" r="1.6"/>
				</g>
				<g>
					<circle class="st7" cx="94.2" cy="50.2" r="1.6"/>
					<circle class="st7" cx="94.2" cy="50.2" r="1.6"/>
				</g>
				<g>
					<circle class="st2" cx="99.2" cy="50.2" r="1.6"/>
				</g>
				<g>
					<circle class="st2" cx="104.2" cy="50.2" r="1.6"/>
				</g>
				<g>
					<circle class="st6" cx="109.2" cy="50.2" r="1.6"/>
					<circle class="st2" cx="109.2" cy="50.2" r="1.6"/>
				</g>
				<g>
					<circle class="st7" cx="114.2" cy="50.2" r="1.6"/>
				</g>
				<g>
					<circle class="st2" cx="119.2" cy="50.2" r="1.6"/>
				</g>
				<g>
					<circle class="st6" cx="124.2" cy="50.2" r="1.6"/>
					<circle class="st2" cx="124.2" cy="50.2" r="1.6"/>
				</g>
				<g>
					<circle class="st2" cx="129.2" cy="50.2" r="1.6"/>
				</g>
				<g>
					<circle class="st7" cx="134.2" cy="50.2" r="1.6"/>
				</g>
				<g>
					<circle class="st6" cx="139.2" cy="50.2" r="1.6"/>
					<circle class="st2" cx="139.2" cy="50.2" r="1.6"/>
				</g>
				<g>
					<circle class="st2" cx="144.2" cy="50.2" r="1.6"/>
				</g>
				<g>
					<circle class="st2" cx="149.2" cy="50.2" r="1.6"/>
				</g>
				<g>
					<circle class="st7" cx="154.2" cy="50.2" r="1.6"/>
					<circle class="st7" cx="154.2" cy="50.2" r="1.6"/>
				</g>
				<g>
					<circle class="st2" cx="159.2" cy="50.2" r="1.6"/>
				</g>
				<g>
					<circle class="st2" cx="164.2" cy="50.2" r="1.6"/>
				</g>
				<g>
					<circle class="st6" cx="169.2" cy="50.2" r="1.6"/>
					<circle class="st2" cx="169.2" cy="50.2" r="1.6"/>
				</g>
				<g>
					<circle class="st7" cx="174.2" cy="50.2" r="1.6"/>
				</g>
				<g>
					<circle class="st2" cx="179.2" cy="50.2" r="1.6"/>
				</g>
				<g>
					<circle class="st6" cx="184.2" cy="50.2" r="1.6"/>
					<circle class="st2" cx="184.2" cy="50.2" r="1.6"/>
				</g>
				<g>
					<circle class="st7" cx="189.2" cy="50.2" r="1.6"/>
				</g>
				<g>
					<circle class="st2" cx="34.2" cy="55.3" r="1.5"/>
				</g>
				<g>
					<circle class="st2" cx="39.2" cy="55.3" r="1.5"/>
				</g>
				<g>
					<circle class="st7" cx="44.2" cy="55.3" r="1.5"/>
				</g>
				<g>
					<circle class="st2" cx="49.2" cy="55.3" r="1.5"/>
				</g>
				<g>
					<circle class="st2" cx="54.2" cy="55.3" r="1.5"/>
				</g>
				<g>
					<circle class="st2" cx="59.2" cy="55.3" r="1.5"/>
				</g>
				<g>
					<circle class="st5" cx="64.2" cy="55.3" r="1.6"/>
				</g>
				<g>
					<circle class="st2" cx="69.2" cy="55.3" r="1.6"/>
				</g>
				<g>
					<circle class="st2" cx="74.2" cy="55.3" r="1.6"/>
				</g>
				<g>
					<circle class="st2" cx="79.2" cy="55.3" r="1.6"/>
				</g>
				<g>
					<circle class="st7" cx="84.2" cy="55.3" r="1.6"/>
				</g>
				<g>
					<circle class="st6" cx="89.2" cy="55.3" r="1.6"/>
					<circle class="st2" cx="89.2" cy="55.3" r="1.6"/>
				</g>
				<g>
					<circle class="st2" cx="94.2" cy="55.3" r="1.6"/>
				</g>
				<g>
					<circle class="st2" cx="99.2" cy="55.3" r="1.6"/>
				</g>
				<g>
					<circle class="st5" cx="104.2" cy="55.3" r="1.6"/>
				</g>
				<g>
					<circle class="st2" cx="109.2" cy="55.3" r="1.6"/>
				</g>
				<g>
					<circle class="st2" cx="114.2" cy="55.3" r="1.6"/>
				</g>
				<g>
					<circle class="st2" cx="119.2" cy="55.3" r="1.6"/>
				</g>
				<g>
					<circle class="st7" cx="124.2" cy="55.3" r="1.6"/>
				</g>
				<g>
					<circle class="st2" cx="129.2" cy="55.3" r="1.6"/>
				</g>
				<g>
					<circle class="st2" cx="134.2" cy="55.3" r="1.6"/>
				</g>
				<g>
					<circle class="st2" cx="139.2" cy="55.3" r="1.6"/>
				</g>
				<g>
					<circle class="st5" cx="144.2" cy="55.3" r="1.6"/>
				</g>
				<g>
					<circle class="st2" cx="149.2" cy="55.3" r="1.6"/>
				</g>
				<g>
					<circle class="st6" cx="154.2" cy="55.3" r="1.6"/>
					<circle class="st2" cx="154.2" cy="55.3" r="1.6"/>
				</g>
				<g>
					<circle class="st2" cx="159.2" cy="55.3" r="1.6"/>
				</g>
				<g>
					<circle class="st7" cx="164.2" cy="55.3" r="1.6"/>
				</g>
				<g>
					<circle class="st2" cx="169.2" cy="55.3" r="1.6"/>
				</g>
				<g>
					<circle class="st2" cx="174.2" cy="55.3" r="1.6"/>
				</g>
				<g>
					<circle class="st2" cx="179.2" cy="55.3" r="1.6"/>
				</g>
				<g>
					<circle class="st5" cx="184.2" cy="55.3" r="1.6"/>
				</g>
				<g>
					<circle class="st2" cx="189.2" cy="55.3" r="1.6"/>
				</g>
			</g>
			<g>
				<path class="st1" d="M30,44.6C30,44.6,30,44.6,30,44.6C30,44.6,30,44.6,30,44.6c-0.1,0-0.1,0-0.1,0s0,0,0-0.1c0,0,0,0,0-0.1
					s0,0,0.1,0l0.4-0.1c0,0,0,0,0,0c0,0,0,0,0,0c0,0,0,0,0,0s0,0,0,0.1V46h0.2c0.1,0,0.1,0,0.2,0c0,0,0,0,0,0.1s0,0.1,0,0.1
					s0,0-0.1,0H30c0,0-0.1,0-0.1,0s0,0,0-0.1s0-0.1,0-0.1c0,0,0.1,0,0.2,0h0.2v-1.4L30,44.6z"/>
			</g>
			<g>
				<path class="st1" d="M28.8,50.2c0.1,0,0.2,0.1,0.3,0.2c0.1,0.1,0.1,0.2,0.1,0.3c0,0.2-0.1,0.3-0.2,0.4c-0.1,0.1-0.3,0.2-0.5,0.2
					c-0.1,0-0.3,0-0.4-0.1c-0.1,0-0.2-0.1-0.2-0.2c0,0,0,0,0-0.1s0,0,0.1,0c0,0,0.1,0,0.2,0.1s0.2,0.1,0.3,0.1c0.1,0,0.2,0,0.3-0.1
					s0.1-0.2,0.1-0.3c0-0.1,0-0.2-0.1-0.2s-0.1-0.1-0.2-0.1c0,0-0.1,0-0.1,0c-0.1,0-0.1,0-0.1-0.1c0-0.1,0-0.1,0.1-0.1
					c0,0,0.1,0,0.1,0c0.1,0,0.1,0,0.2-0.1s0.1-0.1,0.1-0.2c0-0.1,0-0.2-0.1-0.2s-0.1-0.1-0.2-0.1c-0.1,0-0.2,0-0.2,0.1
					c-0.1,0-0.1,0.1-0.2,0.1c0,0,0,0-0.1,0s0,0,0-0.1c0-0.1,0-0.1,0.2-0.2s0.2-0.1,0.4-0.1c0.1,0,0.3,0,0.4,0.1
					c0.1,0.1,0.1,0.2,0.1,0.3c0,0.1,0,0.2-0.1,0.2C29,50.1,28.9,50.1,28.8,50.2z"/>
				<path class="st1" d="M30.6,50.2c0.1,0,0.2,0.1,0.3,0.2c0.1,0.1,0.1,0.2,0.1,0.3c0,0.2-0.1,0.3-0.2,0.4c-0.1,0.1-0.3,0.2-0.5,0.2
					c-0.1,0-0.3,0-0.4-0.1c-0.1-0.1-0.2-0.1-0.2-0.2c0,0,0,0,0-0.1s0,0,0.1,0c0,0,0.1,0,0.2,0.1s0.2,0.1,0.3,0.1
					c0.1,0,0.2,0,0.3-0.1s0.1-0.2,0.1-0.3c0-0.1,0-0.2-0.1-0.2s-0.1-0.1-0.2-0.1c0,0-0.1,0-0.1,0c-0.1,0-0.1,0-0.1-0.1
					c0-0.1,0-0.1,0.1-0.1c0,0,0.1,0,0.1,0c0.1,0,0.1,0,0.2-0.1s0.1-0.1,0.1-0.2c0-0.1,0-0.2-0.1-0.2s-0.1-0.1-0.2-0.1
					c-0.1,0-0.2,0-0.2,0.1c-0.1,0-0.1,0.1-0.2,0.1c0,0,0,0-0.1,0s0,0,0-0.1c0-0.1,0-0.1,0.2-0.2s0.2-0.1,0.4-0.1
					c0.1,0,0.3,0,0.4,0.1c0.1,0.1,0.1,0.2,0.1,0.3c0,0.1,0,0.2-0.1,0.2C30.8,50.1,30.7,50.1,30.6,50.2z"/>
			</g>
			<g>
				<path class="st1" d="M28.2,55.2c0-0.1,0.1-0.1,0.2-0.2s0.1,0,0.2,0c0.1,0,0.3,0.1,0.4,0.2s0.2,0.3,0.2,0.4c0,0.2,0,0.3-0.2,0.4
					s-0.2,0.2-0.4,0.2c-0.2,0-0.4-0.1-0.5-0.2C28,55.8,28,55.6,28,55.4c0-0.3,0.1-0.6,0.3-0.8s0.4-0.3,0.7-0.3c0.1,0,0.2,0,0.2,0
					s0,0,0,0.1c0,0.1-0.1,0.1-0.2,0.1c-0.1,0-0.1,0-0.2,0c-0.1,0-0.3,0.1-0.4,0.2C28.3,54.8,28.2,55,28.2,55.2z M28.2,55.6
					c0,0.1,0,0.2,0.1,0.3c0.1,0.1,0.1,0.1,0.2,0.1s0.2,0,0.2-0.1s0.1-0.2,0.1-0.3s0-0.2-0.1-0.3s-0.1-0.1-0.2-0.1
					c-0.1,0-0.2,0-0.2,0.1C28.3,55.4,28.2,55.5,28.2,55.6z"/>
				<path class="st1" d="M30,55c0.1,0,0.1,0,0.2,0s0.1,0,0.2,0c0.2,0,0.3,0.1,0.4,0.2c0.1,0.1,0.2,0.3,0.2,0.4
					c0,0.2-0.1,0.3-0.2,0.5s-0.3,0.2-0.5,0.2c-0.2,0-0.3,0-0.4-0.1c-0.1,0-0.2-0.1-0.2-0.2c0,0,0,0,0-0.1s0,0,0.1,0
					c0,0,0.1,0,0.2,0.1s0.2,0.1,0.3,0.1c0.1,0,0.2,0,0.3-0.1c0.1-0.1,0.1-0.2,0.1-0.3s0-0.2-0.1-0.3c-0.1-0.1-0.2-0.1-0.3-0.1
					c-0.1,0-0.2,0-0.3,0.1s-0.1,0.1-0.1,0.1c0,0,0,0-0.1,0s0-0.1,0-0.1v-0.7c0,0,0-0.1,0-0.1s0,0,0.1,0h0.7c0,0,0.1,0,0.1,0
					s0,0,0,0.1s0,0.1,0,0.1s-0.1,0-0.1,0H30L30,55L30,55z"/>
			</g>
		</g>
		<path class="st1" d="M194.5,46.1c-0.1,0-0.1,0-0.1,0c0,0,0,0,0-0.1c0-0.1,0.1-0.2,0.3-0.4l0,0c0,0,0.1-0.1,0.1-0.1
			c0.3-0.3,0.5-0.5,0.5-0.7c0-0.1,0-0.2-0.1-0.2s-0.1-0.1-0.2-0.1c-0.1,0-0.1,0-0.2,0c-0.1,0-0.1,0.1-0.1,0.1c0,0,0,0,0,0
			c0,0.1-0.1,0.1-0.1,0.1s-0.1,0-0.1,0s0-0.1,0-0.1c0,0,0-0.1,0-0.1s0,0,0,0c0.1-0.1,0.1-0.1,0.2-0.1c0.1,0,0.2,0,0.3,0
			c0.2,0,0.3,0,0.4,0.2c0.1,0.1,0.2,0.2,0.2,0.4c0,0.2-0.2,0.5-0.5,0.8c-0.1,0.1-0.1,0.1-0.2,0.2l-0.2,0.2h0.7c0,0,0-0.1,0-0.1
			c0,0,0,0,0.1,0s0.1,0,0.1,0s0,0,0,0.1c0,0,0,0,0,0c0,0,0,0,0,0l0,0.1c0,0,0,0,0,0.1s0,0-0.1,0L194.5,46.1L194.5,46.1z"/>
		<path class="st1" d="M195,51.2c-0.1,0-0.1,0-0.1,0s0,0,0-0.1s0-0.1,0-0.1s0,0,0.1,0h0.2v-0.2h-0.7c0,0,0,0-0.1,0s0,0,0-0.1v-0.1
			c0,0,0-0.1,0-0.1c0,0,0,0,0,0l0.6-1c0,0,0,0,0,0s0,0,0,0c0,0,0,0,0,0h0l0.1,0c0,0,0,0,0,0c0,0,0,0,0,0v1.1h0.1c0,0,0,0,0.1,0
			c0,0,0,0,0,0c0,0,0,0,0.1,0s0,0,0,0c0,0,0,0,0,0c0,0,0,0,0,0l0,0.1c0,0,0,0.1,0,0.1s0,0-0.1,0h-0.1v0.2h0.1c0.1,0,0.1,0,0.1,0
			s0,0,0,0.1s0,0.1,0,0.1s-0.1,0-0.1,0L195,51.2L195,51.2z M195.1,50.5v-1l-0.6,1H195.1z"/>
		<g>
			<path class="st1" d="M193.5,55.3c-0.1,0.1-0.1,0.1-0.2,0.2s-0.1,0-0.2,0c-0.1,0-0.3-0.1-0.4-0.2c-0.1-0.1-0.2-0.3-0.2-0.4
				c0-0.2,0.1-0.3,0.2-0.4c0.1-0.1,0.2-0.2,0.4-0.2c0.2,0,0.4,0.1,0.5,0.2c0.1,0.2,0.2,0.4,0.2,0.6c0,0.3-0.1,0.6-0.3,0.8
				s-0.4,0.3-0.7,0.3c-0.1,0-0.1,0-0.2,0c0,0,0,0,0-0.1c0-0.1,0.1-0.1,0.2-0.1c0.1,0,0.1,0,0.2,0c0.1,0,0.3-0.1,0.4-0.2
				C193.4,55.7,193.5,55.5,193.5,55.3z M193.5,54.9c0-0.1,0-0.2-0.1-0.3c-0.1-0.1-0.1-0.1-0.2-0.1c-0.1,0-0.2,0-0.2,0.1
				s-0.1,0.2-0.1,0.3s0,0.2,0.1,0.3c0.1,0.1,0.1,0.1,0.2,0.1c0.1,0,0.2,0,0.2-0.1C193.4,55.1,193.5,55,193.5,54.9z"/>
			<path class="st1" d="M194.6,55.2c0.1-0.1,0.1-0.1,0.2-0.2s0.1,0,0.2,0c0.1,0,0.3,0.1,0.4,0.2c0.1,0.1,0.2,0.3,0.2,0.4
				c0,0.2-0.1,0.3-0.2,0.4c-0.1,0.1-0.2,0.2-0.4,0.2c-0.2,0-0.4-0.1-0.5-0.2c-0.1-0.2-0.2-0.4-0.2-0.6c0-0.3,0.1-0.6,0.3-0.8
				s0.4-0.3,0.7-0.3c0.1,0,0.2,0,0.2,0s0.1,0,0.1,0.1c0,0.1-0.1,0.1-0.2,0.1c-0.1,0-0.1,0-0.2,0c-0.1,0-0.3,0.1-0.4,0.2
				C194.7,54.9,194.6,55,194.6,55.2z M194.7,55.6c0,0.1,0,0.2,0.1,0.3c0.1,0.1,0.1,0.1,0.2,0.1c0.1,0,0.2,0,0.2-0.1s0.1-0.2,0.1-0.3
				s0-0.2-0.1-0.3s-0.1-0.1-0.2-0.1c-0.1,0-0.2,0-0.2,0.1C194.7,55.4,194.7,55.5,194.7,55.6z"/>
		</g>
	</g>
</g>
</svg>
