<?xml version="1.0" encoding="utf-8"?>
<!-- Generator: Adobe Illustrator 24.3.0, SVG Export Plug-In . SVG Version: 6.00 Build 0)  -->
<svg version="1.1" xmlns="http://www.w3.org/2000/svg" xmlns:xlink="http://www.w3.org/1999/xlink" x="0px" y="0px"
	 viewBox="0 0 252 144" style="enable-background:new 0 0 252 144;" xml:space="preserve">
<style type="text/css">
	.st0{fill:none;stroke:#3D3D3D;}
	.st1{fill:#3D3D3D;}
	.st2{opacity:0.21;fill:#4F72AA;}
	.st3{fill:none;stroke:#4F72AA;stroke-width:0.25;}
	.st4{fill:none;stroke:#3D3D3D;stroke-width:0.5;}
	.st5{fill:#4F72AA;}
	.st6{fill:#F84545;}
</style>
<g id="Repères">
</g>
<g id="Traits_de_coupe">
	<rect x="23.8" y="39.84" class="st0" width="176.48" height="20.82"/>
	<path class="st1" d="M193.44,45.12c0.11,0.03,0.2,0.09,0.27,0.17c0.06,0.08,0.09,0.18,0.09,0.3c0,0.17-0.06,0.31-0.18,0.42
		c-0.12,0.11-0.28,0.16-0.47,0.16c-0.15,0-0.28-0.03-0.4-0.09c-0.12-0.06-0.17-0.12-0.17-0.19c0-0.03,0.01-0.05,0.03-0.07
		c0.02-0.02,0.05-0.03,0.08-0.03c0.02,0,0.08,0.02,0.18,0.07c0.1,0.05,0.2,0.07,0.29,0.07c0.12,0,0.21-0.03,0.28-0.1
		c0.07-0.07,0.11-0.15,0.11-0.26c0-0.09-0.03-0.16-0.08-0.22c-0.05-0.06-0.12-0.1-0.21-0.12c-0.03,0-0.06-0.01-0.1-0.01
		c-0.08,0-0.12-0.04-0.12-0.1c0-0.06,0.04-0.09,0.12-0.1c0.03,0,0.06-0.01,0.08-0.01c0.08-0.01,0.14-0.04,0.18-0.09
		s0.07-0.11,0.07-0.18c0-0.09-0.03-0.17-0.09-0.23s-0.13-0.09-0.22-0.09c-0.08,0-0.17,0.03-0.25,0.08
		c-0.09,0.05-0.14,0.08-0.16,0.08c-0.03,0-0.05-0.01-0.07-0.03c-0.02-0.02-0.03-0.04-0.03-0.07c0-0.06,0.05-0.12,0.16-0.18
		s0.23-0.09,0.36-0.09c0.15,0,0.28,0.05,0.38,0.14c0.1,0.09,0.15,0.21,0.15,0.34c0,0.1-0.02,0.19-0.07,0.25
		C193.62,45.03,193.54,45.08,193.44,45.12z"/>
	<path class="st1" d="M192.83,50.19c0.05-0.07,0.11-0.12,0.18-0.15s0.13-0.05,0.21-0.05c0.15,0,0.29,0.06,0.39,0.17
		c0.11,0.12,0.16,0.26,0.16,0.43c0,0.18-0.05,0.32-0.16,0.44s-0.24,0.17-0.4,0.17c-0.19,0-0.35-0.08-0.46-0.23
		c-0.12-0.15-0.17-0.36-0.17-0.61c0-0.33,0.08-0.6,0.26-0.8s0.4-0.3,0.68-0.3c0.09,0,0.16,0.01,0.19,0.02s0.05,0.04,0.05,0.08
		c0,0.06-0.06,0.09-0.17,0.1c-0.08,0-0.14,0.01-0.18,0.01c-0.15,0.03-0.28,0.11-0.38,0.23C192.92,49.82,192.86,49.98,192.83,50.19z
		 M192.86,50.58c0,0.12,0.03,0.22,0.09,0.29c0.06,0.08,0.15,0.11,0.25,0.11c0.09,0,0.17-0.04,0.23-0.11
		c0.06-0.07,0.09-0.16,0.09-0.28c0-0.12-0.03-0.22-0.09-0.29c-0.06-0.07-0.14-0.11-0.24-0.11c-0.09,0-0.17,0.04-0.24,0.11
		C192.89,50.38,192.86,50.47,192.86,50.58z"/>
	<path class="st2" d="M85.44,58.03H72.97c-0.71,0-1.29-0.58-1.29-1.29V43.81c0-0.71,0.58-1.29,1.29-1.29h12.47
		c0.71,0,1.29,0.58,1.29,1.29v12.94C86.72,57.46,86.15,58.03,85.44,58.03z"/>
	<path class="st3" d="M85.44,58.03H72.97c-0.71,0-1.29-0.58-1.29-1.29V43.81c0-0.71,0.58-1.29,1.29-1.29h12.47
		c0.71,0,1.29,0.58,1.29,1.29v12.94C86.72,57.46,86.15,58.03,85.44,58.03z"/>
	<g>
		<g>
			<circle class="st4" cx="25.35" cy="64.97" r="1.55"/>
		</g>
		<g>
			<path class="st1" d="M29.45,65.89c0,0.04-0.02,0.07-0.03,0.09s-0.05,0.03-0.08,0.03c-0.04,0-0.07-0.01-0.09-0.04
				c-0.02-0.02-0.03-0.06-0.03-0.12l-0.02-0.34v-0.03c0-0.05,0.01-0.08,0.03-0.1s0.05-0.03,0.09-0.03c0.06,0,0.1,0.04,0.13,0.13
				c0.01,0.04,0.02,0.07,0.03,0.1c0.03,0.07,0.09,0.12,0.16,0.16c0.07,0.04,0.16,0.06,0.26,0.06c0.13,0,0.23-0.03,0.31-0.09
				c0.08-0.06,0.12-0.14,0.12-0.23c0-0.08-0.02-0.14-0.07-0.19c-0.05-0.05-0.12-0.08-0.21-0.09l-0.22-0.03
				c-0.2-0.03-0.35-0.08-0.44-0.16s-0.14-0.19-0.14-0.33c0-0.15,0.06-0.27,0.19-0.38c0.12-0.1,0.28-0.15,0.46-0.15
				c0.05,0,0.11,0.01,0.17,0.02c0.06,0.01,0.13,0.04,0.2,0.07c0-0.03,0.01-0.05,0.02-0.06s0.04-0.02,0.07-0.02
				c0.04,0,0.07,0.01,0.09,0.02s0.03,0.04,0.03,0.09l0.02,0.31v0.01c0,0.03-0.01,0.06-0.03,0.08c-0.02,0.02-0.05,0.03-0.08,0.03
				c-0.05,0-0.09-0.04-0.12-0.11c-0.01-0.04-0.03-0.07-0.04-0.09c-0.03-0.05-0.08-0.09-0.14-0.11s-0.13-0.04-0.21-0.04
				c-0.12,0-0.21,0.03-0.29,0.09s-0.11,0.14-0.11,0.23c0,0.07,0.03,0.13,0.08,0.18c0.05,0.04,0.14,0.07,0.25,0.09l0.23,0.03
				c0.17,0.02,0.3,0.07,0.38,0.16s0.13,0.19,0.13,0.33c0,0.16-0.06,0.3-0.18,0.39c-0.12,0.1-0.29,0.15-0.49,0.15
				c-0.07,0-0.14-0.01-0.21-0.02S29.53,65.92,29.45,65.89z"/>
			<path class="st1" d="M31.81,65.73h0.47c0.04,0,0.07,0.01,0.08,0.02c0.02,0.02,0.03,0.04,0.03,0.08c0,0.04-0.01,0.07-0.03,0.08
				c-0.02,0.02-0.05,0.02-0.09,0.02h-1.14c-0.04,0-0.07-0.01-0.09-0.03s-0.03-0.04-0.03-0.08c0-0.03,0.01-0.06,0.03-0.08
				s0.05-0.02,0.09-0.02h0.45v-0.94h-0.29c-0.04,0-0.07-0.01-0.09-0.03s-0.03-0.04-0.03-0.08c0-0.03,0.01-0.06,0.03-0.08
				s0.05-0.03,0.09-0.03h0.43c0.03,0,0.05,0.01,0.06,0.02s0.02,0.03,0.02,0.04V65.73z M31.54,64.16c0-0.11,0.01-0.17,0.03-0.2
				c0.02-0.03,0.06-0.04,0.12-0.04c0.06,0,0.1,0.01,0.12,0.03c0.02,0.02,0.03,0.08,0.03,0.16c0,0.08-0.01,0.14-0.03,0.16
				c-0.02,0.02-0.06,0.03-0.12,0.03c-0.06,0-0.1-0.01-0.12-0.03C31.55,64.26,31.54,64.22,31.54,64.16z"/>
			<path class="st1" d="M34.07,65.86c0,0.14-0.01,0.23-0.02,0.29c-0.01,0.06-0.04,0.11-0.07,0.15c-0.06,0.07-0.13,0.13-0.23,0.17
				c-0.1,0.04-0.21,0.06-0.35,0.06c-0.11,0-0.19-0.01-0.24-0.03c-0.05-0.02-0.08-0.06-0.08-0.1c0-0.03,0.01-0.06,0.04-0.08
				c0.03-0.02,0.05-0.03,0.09-0.03c0.03,0,0.07,0,0.12,0.01c0.05,0.01,0.1,0.01,0.12,0.01c0.14,0,0.25-0.03,0.31-0.1
				s0.09-0.18,0.09-0.34v-0.18c-0.06,0.07-0.13,0.12-0.2,0.15s-0.16,0.05-0.25,0.05c-0.18,0-0.33-0.06-0.45-0.18
				c-0.12-0.12-0.18-0.28-0.18-0.46c0-0.19,0.06-0.34,0.18-0.47s0.28-0.19,0.46-0.19c0.08,0,0.15,0.01,0.22,0.04
				c0.07,0.03,0.14,0.07,0.22,0.13v-0.11c0-0.02,0.01-0.04,0.02-0.05c0.01-0.01,0.03-0.01,0.06-0.01h0.22
				c0.04,0,0.07,0.01,0.09,0.03c0.02,0.02,0.03,0.04,0.03,0.08c0,0.04-0.01,0.07-0.04,0.08c-0.02,0.02-0.07,0.02-0.14,0.02h-0.03
				V65.86z M33.44,64.8c-0.13,0-0.23,0.04-0.31,0.12S33,65.1,33,65.23c0,0.12,0.04,0.23,0.12,0.31c0.08,0.08,0.19,0.12,0.31,0.12
				c0.13,0,0.23-0.04,0.31-0.12c0.08-0.08,0.12-0.18,0.12-0.31s-0.04-0.23-0.12-0.31S33.56,64.8,33.44,64.8z"/>
			<path class="st1" d="M34.73,65.73v-0.94h-0.03c-0.07,0-0.11-0.01-0.14-0.02c-0.02-0.02-0.04-0.04-0.04-0.08
				c0-0.04,0.01-0.06,0.03-0.08c0.02-0.02,0.05-0.02,0.1-0.02h0.07h0.14c0.03,0,0.05,0.01,0.06,0.02s0.02,0.03,0.02,0.04v0.1
				c0.07-0.07,0.14-0.12,0.21-0.15s0.14-0.05,0.22-0.05c0.15,0,0.26,0.05,0.35,0.14s0.13,0.22,0.13,0.38v0.66h0.07
				c0.05,0,0.08,0.01,0.11,0.02c0.02,0.02,0.03,0.04,0.03,0.08c0,0.04-0.01,0.07-0.03,0.08c-0.02,0.02-0.06,0.02-0.12,0.02h-0.32
				c-0.06,0-0.1-0.01-0.12-0.02s-0.03-0.04-0.03-0.08c0-0.04,0.01-0.06,0.03-0.08c0.02-0.01,0.06-0.02,0.12-0.02h0.05v-0.61
				c0-0.11-0.03-0.2-0.08-0.26c-0.05-0.06-0.13-0.09-0.23-0.09c-0.1,0-0.19,0.03-0.26,0.1c-0.08,0.07-0.11,0.15-0.11,0.25v0.61h0.05
				c0.06,0,0.1,0.01,0.12,0.02s0.03,0.04,0.03,0.08c0,0.04-0.01,0.07-0.03,0.08s-0.06,0.02-0.13,0.02h-0.27h-0.08
				c-0.04,0-0.07-0.01-0.09-0.03c-0.02-0.02-0.03-0.04-0.03-0.08c0-0.04,0.01-0.07,0.03-0.08c0.02-0.01,0.07-0.02,0.13-0.02H34.73z"
				/>
			<path class="st1" d="M37.42,65.75c-0.08,0.07-0.17,0.13-0.26,0.17s-0.19,0.06-0.29,0.06c-0.15,0-0.26-0.04-0.35-0.12
				c-0.09-0.08-0.13-0.19-0.13-0.32c0-0.15,0.06-0.27,0.18-0.36c0.12-0.08,0.29-0.13,0.5-0.13c0.06,0,0.11,0,0.17,0.01
				c0.06,0.01,0.12,0.02,0.18,0.03v-0.01c0-0.11-0.03-0.2-0.08-0.25s-0.14-0.08-0.25-0.08c-0.08,0-0.16,0.02-0.25,0.06
				s-0.16,0.06-0.19,0.06c-0.03,0-0.05-0.01-0.07-0.03c-0.02-0.02-0.03-0.05-0.03-0.09c0-0.06,0.05-0.11,0.16-0.15
				c0.11-0.04,0.25-0.06,0.41-0.06c0.17,0,0.3,0.04,0.39,0.13c0.09,0.09,0.13,0.22,0.13,0.39v0.66h0.07c0.07,0,0.12,0.01,0.14,0.02
				s0.04,0.04,0.04,0.08c0,0.04-0.01,0.06-0.03,0.08s-0.05,0.03-0.09,0.03h-0.23c-0.03,0-0.05-0.01-0.07-0.02s-0.03-0.04-0.04-0.07
				L37.42,65.75z M37.4,65.29c-0.05-0.02-0.11-0.03-0.16-0.04c-0.05-0.01-0.1-0.01-0.15-0.01c-0.15,0-0.27,0.03-0.36,0.08
				s-0.13,0.12-0.13,0.21c0,0.07,0.03,0.12,0.08,0.16c0.05,0.04,0.12,0.06,0.21,0.06c0.12,0,0.24-0.03,0.34-0.1s0.16-0.13,0.16-0.2
				V65.29z"/>
			<path class="st1" d="M38.78,64.23h-0.25c-0.09,0-0.15-0.01-0.18-0.02c-0.02-0.01-0.04-0.04-0.04-0.08c0-0.04,0.01-0.06,0.03-0.08
				s0.05-0.03,0.09-0.03h0.48c0.03,0,0.05,0.01,0.06,0.02S39,64.06,39,64.08v1.65h0.46c0.04,0,0.06,0.01,0.08,0.02
				c0.02,0.02,0.03,0.04,0.03,0.08c0,0.04-0.01,0.07-0.02,0.08s-0.05,0.02-0.09,0.02h-1.08c-0.04,0-0.07-0.01-0.09-0.03
				c-0.02-0.02-0.03-0.04-0.03-0.08c0-0.03,0.01-0.06,0.03-0.08s0.05-0.02,0.09-0.02h0.41V64.23z"/>
		</g>
	</g>
	<g>
		<g>
			<circle class="st5" cx="46.76" cy="64.97" r="1.55"/>
			<circle class="st4" cx="46.76" cy="64.97" r="1.55"/>
		</g>
		<g>
			<path class="st1" d="M51.86,65.59v-0.35H51.5c-0.03,0-0.05-0.01-0.07-0.02s-0.02-0.04-0.02-0.07c0-0.04,0.01-0.06,0.02-0.08
				s0.04-0.02,0.07-0.02h0.63c0.03,0,0.04,0.01,0.06,0.02c0.01,0.02,0.02,0.04,0.02,0.07c0,0.04-0.01,0.06-0.02,0.07
				c-0.02,0.01-0.04,0.02-0.09,0.02h-0.02v0.41v0.04c0,0.03,0,0.04-0.01,0.06c-0.01,0.01-0.02,0.02-0.04,0.03
				c-0.06,0.03-0.14,0.06-0.24,0.08s-0.21,0.04-0.32,0.04c-0.26,0-0.47-0.08-0.63-0.25c-0.16-0.17-0.24-0.39-0.24-0.65
				s0.08-0.49,0.24-0.67s0.36-0.26,0.6-0.26c0.07,0,0.13,0.01,0.2,0.02s0.14,0.04,0.21,0.07c0.01-0.03,0.02-0.04,0.04-0.06
				c0.02-0.01,0.04-0.02,0.07-0.02c0.05,0,0.08,0.01,0.09,0.04s0.02,0.09,0.02,0.19v0.2c0,0.05-0.01,0.08-0.02,0.1
				c-0.02,0.02-0.05,0.03-0.09,0.03c-0.05,0-0.09-0.03-0.11-0.09c-0.01-0.02-0.01-0.03-0.02-0.04c-0.04-0.08-0.09-0.14-0.16-0.18
				s-0.14-0.06-0.23-0.06c-0.17,0-0.31,0.06-0.42,0.19s-0.16,0.3-0.16,0.51c0,0.22,0.06,0.4,0.17,0.53c0.12,0.13,0.27,0.2,0.46,0.2
				c0.06,0,0.11-0.01,0.17-0.02S51.79,65.62,51.86,65.59z"/>
			<path class="st1" d="M52.8,65.63h0.07h0.11c0.05,0,0.09,0.01,0.11,0.02s0.03,0.04,0.03,0.08c0,0.04-0.01,0.07-0.03,0.08
				c-0.02,0.01-0.07,0.02-0.14,0.02h-0.37h-0.07c-0.04,0-0.06-0.01-0.08-0.03s-0.03-0.04-0.03-0.08c0-0.04,0.01-0.07,0.03-0.08
				c0.02-0.01,0.06-0.02,0.12-0.02h0.03v-1.32h-0.04c-0.08,0-0.14-0.01-0.17-0.02c-0.03-0.02-0.04-0.04-0.04-0.08
				c0-0.04,0.01-0.06,0.04-0.08c0.02-0.02,0.06-0.02,0.12-0.02c0.04,0,0.07,0,0.09,0h0.14c0.04,0,0.08,0,0.09,0.02
				c0.02,0.01,0.04,0.04,0.06,0.08l0.74,1.27v-1.16h-0.06h-0.1c-0.05,0-0.09-0.01-0.11-0.03c-0.02-0.02-0.04-0.04-0.04-0.08
				c0-0.04,0.01-0.07,0.03-0.08c0.02-0.01,0.06-0.02,0.13-0.02h0.35h0.07c0.04,0,0.06,0.01,0.08,0.03S54,64.17,54,64.21
				c0,0.04-0.01,0.07-0.03,0.08s-0.06,0.02-0.11,0.02h-0.02v1.48c0,0.03-0.01,0.05-0.02,0.06c-0.01,0.01-0.04,0.02-0.09,0.02
				s-0.08,0-0.09-0.01c-0.01-0.01-0.03-0.03-0.06-0.08l-0.78-1.34V65.63z"/>
			<path class="st1" d="M54.65,65.84h-0.23h-0.07c-0.04,0-0.06-0.01-0.08-0.03c-0.02-0.02-0.03-0.04-0.03-0.08
				c0-0.04,0.01-0.06,0.03-0.08s0.06-0.02,0.12-0.02h0.03v-1.32H54.4c-0.06,0-0.1-0.01-0.12-0.02c-0.02-0.02-0.03-0.04-0.03-0.08
				c0-0.04,0.01-0.06,0.03-0.08c0.02-0.02,0.05-0.03,0.08-0.03h0.06h0.23h0.32c0.24,0,0.44,0.08,0.58,0.24
				c0.14,0.16,0.22,0.37,0.22,0.63c0,0.13-0.02,0.25-0.06,0.36c-0.04,0.11-0.1,0.21-0.18,0.29c-0.07,0.08-0.16,0.13-0.27,0.17
				c-0.11,0.03-0.24,0.05-0.41,0.05c-0.02,0-0.05,0-0.1,0C54.71,65.84,54.67,65.84,54.65,65.84z M54.65,65.63
				c0.03,0,0.06,0.01,0.09,0.01c0.03,0,0.06,0,0.09,0c0.24,0,0.42-0.05,0.53-0.16c0.11-0.11,0.17-0.28,0.17-0.51
				c0-0.23-0.06-0.4-0.17-0.51c-0.11-0.11-0.29-0.16-0.54-0.16c-0.05,0-0.08,0-0.1,0c-0.02,0-0.05,0-0.07,0.01V65.63z"/>
		</g>
	</g>
	<g>
		<g>
			<circle class="st6" cx="63.31" cy="64.97" r="1.55"/>
			<circle class="st4" cx="63.31" cy="64.97" r="1.55"/>
		</g>
		<g>
			<path class="st1" d="M67.32,64.34c-0.01,0-0.02,0-0.03,0s-0.01,0-0.02,0c-0.03,0-0.05-0.01-0.07-0.03
				c-0.02-0.02-0.03-0.04-0.03-0.07c0-0.02,0.01-0.04,0.02-0.06s0.04-0.03,0.07-0.04l0.44-0.12c0.01,0,0.02,0,0.03-0.01
				c0.01,0,0.02,0,0.03,0c0.02,0,0.03,0.01,0.04,0.03c0.01,0.02,0.02,0.04,0.02,0.07v1.58h0.23c0.09,0,0.14,0.01,0.17,0.02
				c0.02,0.01,0.04,0.04,0.04,0.08c0,0.04-0.01,0.06-0.03,0.08s-0.05,0.03-0.09,0.03h-0.88c-0.04,0-0.07-0.01-0.09-0.03
				s-0.03-0.04-0.03-0.08c0-0.04,0.01-0.07,0.04-0.08c0.02-0.01,0.08-0.02,0.17-0.02h0.24v-1.43L67.32,64.34z"/>
			<path class="st1" d="M68.96,65.91c-0.05,0-0.09-0.01-0.12-0.03c-0.02-0.02-0.04-0.05-0.04-0.1c0-0.06,0.09-0.18,0.28-0.36
				l0.04-0.04c0.03-0.03,0.07-0.07,0.12-0.12c0.34-0.32,0.51-0.55,0.51-0.7c0-0.1-0.03-0.19-0.09-0.25c-0.06-0.06-0.14-0.1-0.23-0.1
				c-0.06,0-0.12,0.01-0.18,0.04s-0.1,0.06-0.14,0.1c-0.01,0.01-0.02,0.02-0.03,0.04c-0.04,0.07-0.08,0.1-0.12,0.1
				c-0.04,0-0.06-0.01-0.07-0.03s-0.02-0.06-0.02-0.12c0-0.04,0-0.06,0.01-0.08c0.01-0.02,0.02-0.03,0.04-0.05
				c0.06-0.06,0.14-0.11,0.23-0.14c0.09-0.04,0.19-0.05,0.28-0.05c0.16,0,0.3,0.05,0.41,0.16c0.11,0.11,0.16,0.23,0.16,0.39
				c0,0.19-0.17,0.45-0.5,0.76c-0.08,0.08-0.15,0.14-0.19,0.19l-0.18,0.17h0.67c0-0.04,0.02-0.07,0.03-0.1
				c0.02-0.02,0.04-0.03,0.08-0.03s0.06,0.01,0.08,0.03s0.03,0.05,0.03,0.09c0,0,0,0.01,0,0.02c0,0.01,0,0.01,0,0.01l-0.01,0.11
				c0,0.03-0.01,0.05-0.03,0.07c-0.01,0.02-0.03,0.03-0.06,0.03H68.96z"/>
			<path class="st1" d="M70.55,64.38h-0.02c-0.05,0-0.08-0.01-0.1-0.02c-0.02-0.02-0.03-0.04-0.03-0.08c0-0.03,0.01-0.06,0.03-0.08
				c0.02-0.02,0.04-0.03,0.08-0.03h0.44c0.06,0,0.1,0.01,0.12,0.02c0.02,0.02,0.03,0.04,0.03,0.08c0,0.04-0.01,0.06-0.03,0.08
				c-0.02,0.02-0.06,0.03-0.1,0.03h-0.16l0.5,1.28l0.48-1.28h-0.19c-0.05,0-0.08-0.01-0.1-0.03c-0.02-0.02-0.03-0.04-0.03-0.08
				c0-0.04,0.01-0.07,0.03-0.08s0.06-0.02,0.12-0.02h0.46c0.03,0,0.06,0.01,0.08,0.03c0.02,0.02,0.03,0.04,0.03,0.08
				c0,0.04-0.01,0.07-0.03,0.08c-0.02,0.02-0.06,0.02-0.11,0.02H72l-0.53,1.38c-0.03,0.07-0.05,0.12-0.07,0.14s-0.04,0.03-0.07,0.03
				h-0.08c-0.06,0-0.12-0.05-0.16-0.16l0-0.01L70.55,64.38z"/>
		</g>
	</g>
	<g>
		<g>
			<g>
				<g>
					<circle class="st4" cx="34.21" cy="45.23" r="1.55"/>
				</g>
				<g>
					<circle class="st4" cx="39.21" cy="45.23" r="1.55"/>
				</g>
				<g>
					<circle class="st4" cx="44.21" cy="45.23" r="1.55"/>
				</g>
				<g>
					<circle class="st4" cx="49.21" cy="45.23" r="1.55"/>
				</g>
				<g>
					<circle class="st4" cx="54.21" cy="45.23" r="1.55"/>
				</g>
				<g>
					<circle class="st6" cx="59.21" cy="45.23" r="1.55"/>
					<circle class="st4" cx="59.21" cy="45.23" r="1.55"/>
				</g>
				<g>
					<circle class="st4" cx="64.21" cy="45.23" r="1.55"/>
				</g>
				<g>
					<circle class="st4" cx="69.21" cy="45.23" r="1.55"/>
				</g>
				<g>
					<circle class="st4" cx="74.21" cy="45.23" r="1.55"/>
				</g>
				<g>
					<circle class="st4" cx="79.21" cy="45.23" r="1.55"/>
				</g>
				<g>
					<circle class="st4" cx="84.21" cy="45.23" r="1.55"/>
				</g>
				<g>
					<circle class="st4" cx="89.21" cy="45.23" r="1.55"/>
				</g>
				<g>
					<circle class="st4" cx="94.21" cy="45.23" r="1.55"/>
				</g>
				<g>
					<circle class="st4" cx="99.21" cy="45.23" r="1.55"/>
				</g>
				<g>
					<circle class="st4" cx="104.21" cy="45.23" r="1.55"/>
				</g>
				<g>
					<circle class="st4" cx="109.21" cy="45.23" r="1.55"/>
				</g>
				<g>
					<circle class="st4" cx="114.21" cy="45.23" r="1.55"/>
				</g>
				<g>
					<circle class="st4" cx="119.21" cy="45.23" r="1.55"/>
				</g>
				<g>
					<circle class="st6" cx="124.21" cy="45.23" r="1.55"/>
					<circle class="st4" cx="124.21" cy="45.23" r="1.55"/>
				</g>
				<g>
					<circle class="st4" cx="129.21" cy="45.23" r="1.55"/>
				</g>
				<g>
					<circle class="st4" cx="134.21" cy="45.23" r="1.55"/>
				</g>
				<g>
					<circle class="st4" cx="139.21" cy="45.23" r="1.55"/>
				</g>
				<g>
					<circle class="st4" cx="144.21" cy="45.23" r="1.55"/>
				</g>
				<g>
					<circle class="st4" cx="149.21" cy="45.23" r="1.55"/>
				</g>
				<g>
					<circle class="st4" cx="154.21" cy="45.23" r="1.55"/>
				</g>
				<g>
					<circle class="st4" cx="159.21" cy="45.23" r="1.55"/>
				</g>
				<g>
					<circle class="st4" cx="164.21" cy="45.23" r="1.55"/>
				</g>
				<g>
					<circle class="st4" cx="169.21" cy="45.23" r="1.55"/>
				</g>
				<g>
					<circle class="st4" cx="174.21" cy="45.23" r="1.55"/>
				</g>
				<g>
					<circle class="st4" cx="179.21" cy="45.23" r="1.55"/>
				</g>
				<g>
					<circle class="st4" cx="184.21" cy="45.23" r="1.55"/>
				</g>
				<g>
					<circle class="st4" cx="189.21" cy="45.23" r="1.55"/>
				</g>
				<g>
					<circle class="st5" cx="34.21" cy="50.23" r="1.55"/>
					<circle class="st4" cx="34.21" cy="50.23" r="1.55"/>
				</g>
				<g>
					<circle class="st4" cx="39.21" cy="50.23" r="1.55"/>
				</g>
				<g>
					<circle class="st4" cx="44.21" cy="50.23" r="1.55"/>
				</g>
				<g>
					<circle class="st5" cx="49.21" cy="50.23" r="1.55"/>
					<circle class="st4" cx="49.21" cy="50.23" r="1.55"/>
				</g>
				<g>
					<circle class="st4" cx="54.21" cy="50.23" r="1.55"/>
				</g>
				<g>
					<circle class="st4" cx="59.21" cy="50.23" r="1.55"/>
				</g>
				<g>
					<circle class="st5" cx="64.21" cy="50.23" r="1.55"/>
					<circle class="st4" cx="64.21" cy="50.23" r="1.55"/>
				</g>
				<g>
					<circle class="st4" cx="69.21" cy="50.23" r="1.55"/>
				</g>
				<g>
					<circle class="st4" cx="74.21" cy="50.23" r="1.55"/>
				</g>
				<g>
					<circle class="st5" cx="79.21" cy="50.23" r="1.55"/>
					<circle class="st4" cx="79.21" cy="50.23" r="1.55"/>
				</g>
				<g>
					<circle class="st4" cx="84.21" cy="50.23" r="1.55"/>
				</g>
				<g>
					<circle class="st4" cx="89.21" cy="50.23" r="1.55"/>
				</g>
				<g>
					<circle class="st5" cx="94.21" cy="50.23" r="1.55"/>
					<circle class="st4" cx="94.21" cy="50.23" r="1.55"/>
				</g>
				<g>
					<circle class="st4" cx="99.21" cy="50.23" r="1.55"/>
				</g>
				<g>
					<circle class="st4" cx="104.21" cy="50.23" r="1.55"/>
				</g>
				<g>
					<circle class="st5" cx="109.21" cy="50.23" r="1.55"/>
					<circle class="st4" cx="109.21" cy="50.23" r="1.55"/>
				</g>
				<g>
					<circle class="st4" cx="114.21" cy="50.23" r="1.55"/>
				</g>
				<g>
					<circle class="st4" cx="119.21" cy="50.23" r="1.55"/>
				</g>
				<g>
					<circle class="st5" cx="124.21" cy="50.23" r="1.55"/>
					<circle class="st4" cx="124.21" cy="50.23" r="1.55"/>
				</g>
				<g>
					<circle class="st4" cx="129.21" cy="50.23" r="1.55"/>
				</g>
				<g>
					<circle class="st4" cx="134.21" cy="50.23" r="1.55"/>
				</g>
				<g>
					<circle class="st5" cx="139.21" cy="50.23" r="1.55"/>
					<circle class="st4" cx="139.21" cy="50.23" r="1.55"/>
				</g>
				<g>
					<circle class="st4" cx="144.21" cy="50.23" r="1.55"/>
				</g>
				<g>
					<circle class="st4" cx="149.21" cy="50.23" r="1.55"/>
				</g>
				<g>
					<circle class="st5" cx="154.21" cy="50.23" r="1.55"/>
					<circle class="st4" cx="154.21" cy="50.23" r="1.55"/>
				</g>
				<g>
					<circle class="st4" cx="159.21" cy="50.23" r="1.55"/>
				</g>
				<g>
					<circle class="st4" cx="164.21" cy="50.23" r="1.55"/>
				</g>
				<g>
					<circle class="st5" cx="169.21" cy="50.23" r="1.55"/>
					<circle class="st4" cx="169.21" cy="50.23" r="1.55"/>
				</g>
				<g>
					<circle class="st4" cx="174.21" cy="50.23" r="1.55"/>
				</g>
				<g>
					<circle class="st4" cx="179.21" cy="50.23" r="1.55"/>
				</g>
				<g>
					<circle class="st5" cx="184.21" cy="50.23" r="1.55"/>
					<circle class="st4" cx="184.21" cy="50.23" r="1.55"/>
				</g>
				<g>
					<circle class="st4" cx="189.21" cy="50.23" r="1.55"/>
				</g>
				<g>
					<circle class="st4" cx="34.21" cy="55.27" r="1.55"/>
				</g>
				<g>
					<circle class="st4" cx="39.21" cy="55.27" r="1.55"/>
				</g>
				<g>
					<circle class="st4" cx="44.21" cy="55.27" r="1.55"/>
				</g>
				<g>
					<circle class="st4" cx="49.21" cy="55.27" r="1.55"/>
				</g>
				<g>
					<circle class="st4" cx="54.21" cy="55.27" r="1.55"/>
				</g>
				<g>
					<circle class="st4" cx="59.21" cy="55.27" r="1.55"/>
				</g>
				<g>
					<circle class="st4" cx="64.21" cy="55.27" r="1.55"/>
				</g>
				<g>
					<circle class="st4" cx="69.21" cy="55.27" r="1.55"/>
				</g>
				<g>
					<circle class="st4" cx="74.21" cy="55.27" r="1.55"/>
				</g>
				<g>
					<circle class="st4" cx="79.21" cy="55.27" r="1.55"/>
				</g>
				<g>
					<circle class="st4" cx="84.21" cy="55.27" r="1.55"/>
				</g>
				<g>
					<circle class="st6" cx="89.21" cy="55.27" r="1.55"/>
					<circle class="st4" cx="89.21" cy="55.27" r="1.55"/>
				</g>
				<g>
					<circle class="st4" cx="94.21" cy="55.27" r="1.55"/>
				</g>
				<g>
					<circle class="st4" cx="99.21" cy="55.27" r="1.55"/>
				</g>
				<g>
					<circle class="st4" cx="104.21" cy="55.27" r="1.55"/>
				</g>
				<g>
					<circle class="st4" cx="109.21" cy="55.27" r="1.55"/>
				</g>
				<g>
					<circle class="st4" cx="114.21" cy="55.27" r="1.55"/>
				</g>
				<g>
					<circle class="st4" cx="119.21" cy="55.27" r="1.55"/>
				</g>
				<g>
					<circle class="st4" cx="124.21" cy="55.27" r="1.55"/>
				</g>
				<g>
					<circle class="st4" cx="129.21" cy="55.27" r="1.55"/>
				</g>
				<g>
					<circle class="st4" cx="134.21" cy="55.27" r="1.55"/>
				</g>
				<g>
					<circle class="st4" cx="139.21" cy="55.27" r="1.55"/>
				</g>
				<g>
					<circle class="st4" cx="144.21" cy="55.27" r="1.55"/>
				</g>
				<g>
					<circle class="st4" cx="149.21" cy="55.27" r="1.55"/>
				</g>
				<g>
					<circle class="st6" cx="154.21" cy="55.27" r="1.55"/>
					<circle class="st4" cx="154.21" cy="55.27" r="1.55"/>
				</g>
				<g>
					<circle class="st4" cx="159.21" cy="55.27" r="1.55"/>
				</g>
				<g>
					<circle class="st4" cx="164.21" cy="55.27" r="1.55"/>
				</g>
				<g>
					<circle class="st4" cx="169.21" cy="55.27" r="1.55"/>
				</g>
				<g>
					<circle class="st4" cx="174.21" cy="55.27" r="1.55"/>
				</g>
				<g>
					<circle class="st4" cx="179.21" cy="55.27" r="1.55"/>
				</g>
				<g>
					<circle class="st4" cx="184.21" cy="55.27" r="1.55"/>
				</g>
				<g>
					<circle class="st4" cx="189.21" cy="55.27" r="1.55"/>
				</g>
			</g>
			<g>
				<path class="st1" d="M30.02,44.6c-0.01,0-0.02,0-0.03,0s-0.01,0-0.02,0c-0.03,0-0.05-0.01-0.07-0.03
					c-0.02-0.02-0.03-0.04-0.03-0.07c0-0.02,0.01-0.04,0.02-0.06s0.04-0.03,0.07-0.04l0.44-0.12c0.01,0,0.02,0,0.03-0.01
					c0.01,0,0.02,0,0.03,0c0.02,0,0.03,0.01,0.04,0.03c0.01,0.02,0.02,0.04,0.02,0.07v1.58h0.23c0.09,0,0.14,0.01,0.17,0.02
					c0.02,0.01,0.04,0.04,0.04,0.08c0,0.04-0.01,0.06-0.03,0.08s-0.05,0.03-0.09,0.03h-0.88c-0.04,0-0.07-0.01-0.09-0.03
					s-0.03-0.04-0.03-0.08c0-0.04,0.01-0.07,0.04-0.08c0.02-0.01,0.08-0.02,0.17-0.02h0.24v-1.43L30.02,44.6z"/>
			</g>
			<g>
				<path class="st1" d="M28.8,50.15c0.11,0.03,0.2,0.09,0.27,0.17c0.06,0.08,0.09,0.18,0.09,0.3c0,0.17-0.06,0.31-0.18,0.42
					c-0.12,0.11-0.28,0.16-0.47,0.16c-0.15,0-0.28-0.03-0.4-0.09C28,51.06,27.94,51,27.94,50.93c0-0.03,0.01-0.05,0.03-0.07
					c0.02-0.02,0.05-0.03,0.08-0.03c0.02,0,0.08,0.02,0.18,0.07c0.1,0.05,0.2,0.07,0.29,0.07c0.12,0,0.21-0.03,0.28-0.1
					s0.11-0.15,0.11-0.26c0-0.09-0.03-0.16-0.08-0.22c-0.05-0.06-0.12-0.1-0.21-0.12c-0.03,0-0.06-0.01-0.1-0.01
					c-0.08,0-0.12-0.04-0.12-0.1c0-0.06,0.04-0.09,0.12-0.1c0.03,0,0.06-0.01,0.08-0.01c0.08-0.01,0.14-0.04,0.18-0.09
					s0.07-0.11,0.07-0.18c0-0.09-0.03-0.17-0.09-0.23s-0.13-0.09-0.22-0.09c-0.08,0-0.17,0.03-0.25,0.08
					c-0.09,0.05-0.14,0.08-0.16,0.08c-0.03,0-0.05-0.01-0.07-0.03c-0.02-0.02-0.03-0.04-0.03-0.07c0-0.06,0.05-0.12,0.16-0.18
					s0.23-0.09,0.36-0.09c0.15,0,0.28,0.05,0.38,0.14c0.1,0.09,0.15,0.21,0.15,0.34c0,0.1-0.02,0.19-0.07,0.25
					C28.98,50.06,28.9,50.11,28.8,50.15z"/>
				<path class="st1" d="M30.6,50.15c0.11,0.03,0.2,0.09,0.27,0.17c0.06,0.08,0.09,0.18,0.09,0.3c0,0.17-0.06,0.31-0.18,0.42
					c-0.12,0.11-0.28,0.16-0.47,0.16c-0.15,0-0.28-0.03-0.4-0.09c-0.12-0.06-0.17-0.12-0.17-0.19c0-0.03,0.01-0.05,0.03-0.07
					c0.02-0.02,0.05-0.03,0.08-0.03c0.02,0,0.08,0.02,0.18,0.07c0.1,0.05,0.2,0.07,0.29,0.07c0.12,0,0.21-0.03,0.28-0.1
					s0.11-0.15,0.11-0.26c0-0.09-0.03-0.16-0.08-0.22c-0.05-0.06-0.12-0.1-0.21-0.12c-0.03,0-0.06-0.01-0.1-0.01
					c-0.08,0-0.12-0.04-0.12-0.1c0-0.06,0.04-0.09,0.12-0.1c0.03,0,0.06-0.01,0.08-0.01c0.08-0.01,0.14-0.04,0.18-0.09
					s0.07-0.11,0.07-0.18c0-0.09-0.03-0.17-0.09-0.23s-0.13-0.09-0.22-0.09c-0.08,0-0.17,0.03-0.25,0.08
					c-0.09,0.05-0.14,0.08-0.16,0.08c-0.03,0-0.05-0.01-0.07-0.03c-0.02-0.02-0.03-0.04-0.03-0.07c0-0.06,0.05-0.12,0.16-0.18
					s0.23-0.09,0.36-0.09c0.15,0,0.28,0.05,0.38,0.14c0.1,0.09,0.15,0.21,0.15,0.34c0,0.1-0.02,0.19-0.07,0.25
					C30.78,50.06,30.71,50.11,30.6,50.15z"/>
			</g>
			<g>
				<path class="st1" d="M28.21,55.22c0.05-0.07,0.11-0.12,0.18-0.15s0.13-0.05,0.21-0.05c0.15,0,0.29,0.06,0.39,0.17
					s0.16,0.26,0.16,0.43c0,0.18-0.05,0.32-0.16,0.44s-0.24,0.17-0.4,0.17c-0.19,0-0.35-0.08-0.46-0.23
					c-0.12-0.15-0.17-0.36-0.17-0.61c0-0.33,0.09-0.6,0.26-0.8s0.4-0.3,0.68-0.3c0.09,0,0.16,0.01,0.19,0.02s0.05,0.04,0.05,0.08
					c0,0.06-0.06,0.09-0.17,0.1c-0.08,0-0.14,0.01-0.18,0.01c-0.15,0.03-0.28,0.11-0.38,0.23C28.3,54.85,28.24,55.02,28.21,55.22z
					 M28.25,55.61c0,0.12,0.03,0.22,0.1,0.29c0.06,0.08,0.15,0.11,0.24,0.11c0.09,0,0.17-0.04,0.23-0.11
					c0.06-0.07,0.09-0.16,0.09-0.28c0-0.12-0.03-0.22-0.09-0.29c-0.06-0.07-0.14-0.11-0.24-0.11c-0.09,0-0.17,0.04-0.23,0.11
					C28.28,55.41,28.25,55.5,28.25,55.61z"/>
				<path class="st1" d="M30.03,55.04c0.06-0.02,0.12-0.04,0.18-0.05s0.11-0.02,0.16-0.02c0.17,0,0.31,0.06,0.43,0.18
					c0.11,0.12,0.17,0.27,0.17,0.44c0,0.19-0.06,0.34-0.19,0.46s-0.29,0.18-0.48,0.18c-0.16,0-0.3-0.02-0.41-0.07
					c-0.11-0.04-0.17-0.1-0.17-0.16c0-0.03,0.01-0.05,0.03-0.07s0.04-0.03,0.07-0.03c0.01,0,0.07,0.02,0.17,0.06
					c0.1,0.04,0.2,0.06,0.29,0.06c0.13,0,0.24-0.04,0.32-0.12c0.08-0.08,0.12-0.18,0.12-0.3c0-0.12-0.04-0.22-0.12-0.3
					c-0.08-0.08-0.17-0.12-0.29-0.12c-0.09,0-0.17,0.02-0.26,0.07s-0.14,0.07-0.15,0.07c-0.03,0-0.05-0.01-0.06-0.03
					c-0.01-0.02-0.02-0.06-0.02-0.12v-0.73c0-0.03,0.01-0.06,0.03-0.07c0.02-0.01,0.05-0.02,0.1-0.02h0.74
					c0.05,0,0.08,0.01,0.11,0.03s0.04,0.05,0.04,0.09c0,0.04-0.01,0.06-0.04,0.08s-0.06,0.03-0.1,0.03h-0.66V55.04z"/>
			</g>
		</g>
		<path class="st1" d="M194.5,46.13c-0.05,0-0.09-0.01-0.12-0.03c-0.02-0.02-0.04-0.05-0.04-0.1c0-0.06,0.09-0.18,0.28-0.36
			l0.04-0.04c0.03-0.03,0.07-0.07,0.12-0.12c0.34-0.32,0.51-0.55,0.51-0.7c0-0.1-0.03-0.19-0.09-0.25c-0.06-0.06-0.14-0.1-0.23-0.1
			c-0.06,0-0.12,0.01-0.18,0.04c-0.06,0.03-0.1,0.06-0.14,0.1c-0.01,0.01-0.01,0.02-0.03,0.04c-0.04,0.07-0.08,0.1-0.12,0.1
			c-0.04,0-0.06-0.01-0.07-0.03s-0.02-0.06-0.02-0.12c0-0.04,0-0.06,0.01-0.08c0.01-0.02,0.02-0.03,0.04-0.05
			c0.06-0.06,0.14-0.11,0.23-0.14c0.09-0.04,0.19-0.05,0.28-0.05c0.16,0,0.3,0.05,0.41,0.16c0.11,0.1,0.16,0.23,0.16,0.39
			c0,0.19-0.17,0.45-0.5,0.76c-0.08,0.08-0.15,0.14-0.19,0.19l-0.18,0.17h0.67c0-0.04,0.02-0.07,0.03-0.1
			c0.02-0.02,0.04-0.03,0.08-0.03s0.06,0.01,0.08,0.03s0.03,0.05,0.03,0.09c0,0,0,0.01,0,0.02c0,0.01,0,0.01,0,0.02l-0.01,0.11
			c0,0.03-0.01,0.05-0.03,0.07s-0.03,0.03-0.06,0.03H194.5z"/>
		<path class="st1" d="M194.96,51.15c-0.05,0-0.08-0.01-0.1-0.02s-0.02-0.04-0.02-0.08c0-0.04,0.01-0.06,0.03-0.08
			c0.02-0.02,0.04-0.02,0.08-0.02h0.17v-0.25h-0.68c-0.02,0-0.04-0.01-0.06-0.02s-0.02-0.04-0.02-0.07v-0.1
			c0-0.04,0.01-0.08,0.04-0.12c0-0.01,0.01-0.01,0.01-0.02l0.62-1.05c0.01-0.02,0.03-0.04,0.03-0.05s0.02-0.01,0.04-0.01
			c0.01,0,0.02,0,0.03,0c0,0,0.01,0,0.01,0l0.15,0.02c0.01,0,0.02,0.01,0.03,0.02c0.01,0.01,0.01,0.03,0.01,0.05v1.11h0.07
			c0.02,0,0.04-0.01,0.05-0.03c0.01-0.02,0.03-0.03,0.04-0.03c0.02,0,0.04,0.01,0.05,0.02s0.02,0.03,0.02,0.05c0,0.01,0,0.02,0,0.02
			c0,0.01,0,0.01-0.01,0.02l-0.01,0.06c-0.01,0.04-0.02,0.06-0.03,0.07c-0.01,0.01-0.03,0.02-0.06,0.02h-0.12v0.25h0.05
			c0.06,0,0.11,0.01,0.13,0.02s0.04,0.04,0.04,0.08c0,0.04-0.01,0.06-0.03,0.08s-0.05,0.03-0.09,0.03H194.96z M195.12,50.47v-0.99
			l-0.56,0.99H195.12z"/>
		<g>
			<path class="st1" d="M193.51,55.31c-0.05,0.07-0.11,0.12-0.17,0.15s-0.13,0.05-0.21,0.05c-0.15,0-0.29-0.06-0.39-0.17
				c-0.11-0.12-0.16-0.26-0.16-0.43c0-0.18,0.05-0.32,0.16-0.44c0.1-0.11,0.24-0.17,0.4-0.17c0.19,0,0.35,0.08,0.46,0.23
				c0.12,0.15,0.18,0.36,0.18,0.61c0,0.33-0.09,0.6-0.26,0.8c-0.17,0.2-0.4,0.3-0.69,0.3c-0.09,0-0.15-0.01-0.18-0.02
				c-0.03-0.01-0.04-0.04-0.04-0.08c0-0.06,0.06-0.1,0.17-0.1c0.08,0,0.14-0.01,0.18-0.02c0.15-0.03,0.28-0.1,0.38-0.23
				C193.42,55.68,193.48,55.51,193.51,55.31z M193.48,54.92c0-0.12-0.03-0.22-0.1-0.29c-0.06-0.08-0.15-0.11-0.25-0.11
				c-0.09,0-0.17,0.04-0.23,0.11s-0.09,0.16-0.09,0.28c0,0.12,0.03,0.22,0.09,0.29c0.06,0.08,0.14,0.11,0.24,0.11
				c0.09,0,0.17-0.04,0.24-0.11C193.45,55.12,193.48,55.03,193.48,54.92z"/>
			<path class="st1" d="M194.63,55.24c0.05-0.07,0.11-0.12,0.18-0.15s0.13-0.05,0.21-0.05c0.15,0,0.29,0.06,0.39,0.17
				c0.11,0.12,0.16,0.26,0.16,0.43c0,0.18-0.05,0.32-0.16,0.44c-0.11,0.11-0.24,0.17-0.4,0.17c-0.19,0-0.35-0.08-0.46-0.23
				c-0.12-0.15-0.17-0.36-0.17-0.61c0-0.33,0.08-0.6,0.26-0.8s0.4-0.3,0.68-0.3c0.09,0,0.16,0.01,0.19,0.02s0.05,0.04,0.05,0.08
				c0,0.06-0.06,0.09-0.17,0.1c-0.08,0-0.14,0.01-0.18,0.01c-0.15,0.03-0.28,0.11-0.38,0.23C194.72,54.87,194.65,55.03,194.63,55.24
				z M194.66,55.63c0,0.12,0.03,0.22,0.1,0.29c0.06,0.08,0.14,0.11,0.24,0.11c0.09,0,0.17-0.04,0.23-0.11
				c0.06-0.07,0.09-0.16,0.09-0.28c0-0.12-0.03-0.22-0.09-0.29c-0.06-0.07-0.14-0.11-0.24-0.11c-0.09,0-0.17,0.04-0.23,0.11
				C194.69,55.42,194.66,55.51,194.66,55.63z"/>
		</g>
	</g>
</g>
</svg>
